<svg viewBox="0 0 144 28" xmlns="http://www.w3.org/2000/svg" role="img" aria-label="deezer-logo" class="css-adf65k"><g clip-path="url(#clip0_6:467)"><path d="M29 8.83594H22.7527V12.472H29V8.83594Z" fill="#29AB70"></path><path d="M29 13.8359H22.7527V17.4721H29V13.8359Z" fill="url(#paint0_linear_6:467)"></path><path d="M29 18.9102H22.7527V22.5463H29V18.9102Z" fill="url(#paint1_linear_6:467)"></path><path d="M6.24734 23.9102H0V27.5463H6.24734V23.9102Z" fill="url(#paint2_linear_6:467)"></path><path d="M13.8059 23.9102H7.55859V27.5463H13.8059V23.9102Z" fill="url(#paint3_linear_6:467)"></path><path d="M21.4415 23.9102H15.1942V27.5463H21.4415V23.9102Z" fill="url(#paint4_linear_6:467)"></path><path d="M29 23.9102H22.7527V27.5463H29V23.9102Z" fill="url(#paint5_linear_6:467)"></path><path d="M21.4415 18.9102H15.1942V22.5463H21.4415V18.9102Z" fill="url(#paint6_linear_6:467)"></path><path d="M13.8059 18.9102H7.55859V22.5463H13.8059V18.9102Z" fill="url(#paint7_linear_6:467)"></path><path d="M13.8059 13.8359H7.55859V17.4721H13.8059V13.8359Z" fill="url(#paint8_linear_6:467)"></path><path d="M83.3064 23.4678C80.6277 23.4678 78.4242 21.8781 78.3844 19.086H91.0687C91.2351 18.3477 91.3184 17.5937 91.3174 16.8375C91.3174 11.7945 87.813 8.57617 82.6548 8.57617C77.1409 8.57617 73.3604 12.8036 73.3604 18.0377C73.3604 23.8547 77.4567 27.7344 83.2443 27.7344C87.6166 27.7344 90.6484 25.5619 91.9491 21.9933L87.639 20.3352C87.047 22.422 85.5896 23.4678 83.3064 23.4678ZM82.6374 12.5709C84.8757 12.5709 86.4178 13.7735 86.4178 15.635L86.378 15.7893H78.3844C78.8569 13.7735 80.5904 12.5709 82.6374 12.5709Z" fill="black"></path><path d="M108.742 13.036V8.96289H92.4788V13.2295H102.403L92.163 23.0805V27.3447H109.019V22.8845H98.4629L108.742 13.036Z" fill="black"></path><path d="M139.118 14.8978C139.119 15.2066 139.098 15.5152 139.056 15.8211H143.833C143.949 15.223 144.005 14.6151 144 14.0062C144 10.8638 141.993 8.57617 138.645 8.57617C136.478 8.57617 134.944 9.62446 134.155 11.3291V8.9656H129.116V27.3352H134.155V15.5174C134.155 13.656 135.18 12.6102 136.755 12.6102C138.173 12.6102 139.118 13.5408 139.118 14.8978Z" fill="black"></path><path d="M48.3718 11.7181C47.2278 9.81752 45.1013 8.57573 42.4649 8.57573C37.344 8.57573 33.6033 12.4554 33.6033 18.2332C33.6033 23.9327 37.3067 27.734 42.5818 27.734C45.2206 27.734 47.3471 26.6073 48.5683 24.7091V27.3445H53.4107V0.199219H48.3718V11.7181ZM43.604 23.5188C40.8085 23.5188 38.6298 21.503 38.6298 18.2455C38.6298 14.9488 40.796 12.857 43.604 12.857C46.3199 12.857 48.5658 14.9512 48.5658 18.2455C48.5658 21.4907 46.3199 23.5188 43.604 23.5188Z" fill="black"></path><path d="M119.208 23.4678C116.529 23.4678 114.326 21.8781 114.286 19.086H126.97C127.136 18.3477 127.22 17.5937 127.219 16.8375C127.219 11.7945 123.714 8.57617 118.557 8.57617C113.042 8.57617 109.262 12.8036 109.262 18.0377C109.262 23.8547 113.358 27.7344 119.146 27.7344C123.518 27.7344 126.55 25.5619 127.85 21.9933L123.538 20.3352C122.948 22.422 121.494 23.4678 119.208 23.4678ZM118.538 12.5709C120.777 12.5709 122.319 13.7735 122.319 15.635L122.279 15.7893H114.281C114.758 13.7735 116.489 12.5709 118.538 12.5709Z" fill="black"></path><path d="M64.6949 23.4678C62.0163 23.4678 59.8127 21.8781 59.7729 19.086H72.4573C72.6207 18.3475 72.6999 17.5933 72.6936 16.8375C72.6936 11.7945 69.1892 8.57617 64.0309 8.57617C58.5169 8.57617 54.7365 12.8036 54.7365 18.0377C54.7365 23.8547 58.8328 27.7344 64.6203 27.7344C68.9927 27.7344 72.0245 25.5619 73.3253 21.9933L69.0275 20.3352C68.4356 22.422 66.9781 23.4678 64.6949 23.4678ZM64.0259 12.5709C66.2643 12.5709 67.8064 13.7735 67.8064 15.635L67.7666 15.7893H59.7729C60.2455 13.7735 61.979 12.5709 64.0259 12.5709Z" fill="black"></path></g></svg>